<svg width="425" height="344" viewBox="0 0 425 344" fill="none" xmlns="http://www.w3.org/2000/svg">
<path d="M1 249.776V33.5198C1 11.6428 22.4621 -3.78377 43.1983 3.18836L209.853 59.2228L382.029 2.76309C402.721 -4.02223 424 11.3938 424 33.17V249.594C424 263.425 415.114 275.691 401.971 280.001L209.853 343L22.8017 280.108C9.77518 275.728 1 263.519 1 249.776Z" fill="#D9D9D9"/>
<path d="M209.853 343L22.8017 280.108C9.77518 275.728 1 263.519 1 249.776V33.5198C1 11.6428 22.4621 -3.78377 43.1983 3.18836L209.853 59.2228M209.853 343L401.971 280.001C415.114 275.691 424 263.425 424 249.594V33.17C424 11.3938 402.721 -4.02223 382.029 2.76309L209.853 59.2228M209.853 343V59.2228" stroke="black"/>
</svg>
