<svg width="292" height="453" viewBox="0 0 292 453" fill="none" xmlns="http://www.w3.org/2000/svg">
<path d="M158 0.5C170.979 0.5 181.5 11.0213 181.5 24V84C181.5 97.531 192.469 108.5 206 108.5L268 108.5C280.979 108.5 291.5 119.021 291.5 132V156C291.5 168.979 280.979 179.5 268 179.5H206C192.469 179.5 181.5 190.469 181.5 204V429C181.5 441.979 170.979 452.5 158 452.5H134C121.021 452.5 110.5 441.979 110.5 429V204C110.5 190.469 99.531 179.5 86 179.5H24C11.0213 179.5 0.499999 168.979 0.5 156L0.500001 132C0.500002 119.021 11.0213 108.5 24 108.5L86 108.5C99.531 108.5 110.5 97.531 110.5 84V24C110.5 11.0213 121.021 0.5 134 0.5H158Z" fill="#FFCF52" stroke="black"/>
</svg>
