<svg width="403" height="307" viewBox="0 0 403 307" fill="none" xmlns="http://www.w3.org/2000/svg">
<path d="M269.636 1.73116C291.639 6.35268 312.861 13.167 333.059 21.9579C338.312 24.2439 342.751 28.0628 345.837 32.8923C385.768 95.3785 406.469 165.149 401.868 244.533C401.354 253.398 396.789 261.544 389.477 266.581C364.102 284.061 339.262 296.319 314.768 305.24C305.682 308.55 295.535 305.207 290.379 297.039C288.747 294.454 287.161 291.837 285.621 289.189C281.386 281.905 284.986 272.714 292.695 269.085C297.08 267.021 301.386 264.813 305.607 262.466C309.08 260.536 309.305 255.723 306.257 253.26C304.576 251.901 302.259 251.605 300.293 252.505C236.663 281.642 167.075 281.638 102.699 252.487C100.737 251.598 98.4423 251.895 96.7704 253.253C93.7355 255.717 93.9314 260.539 97.4051 262.469C101.629 264.815 105.941 267.026 110.333 269.093C117.997 272.699 121.576 281.83 117.365 289.068C115.812 291.736 114.213 294.373 112.568 296.975C107.401 305.154 97.237 308.511 88.1383 305.192C63.6916 296.277 38.8966 284.032 13.5527 266.593C6.22252 261.55 1.65098 253.392 1.13772 244.508C-2.86693 175.185 11.5447 104.92 57.0007 33.0431C60.0897 28.1586 64.5536 24.2924 69.8479 21.9838C90.0405 13.1787 111.271 6.34944 133.284 1.72673C139.922 0.332736 146.611 3.49552 149.598 9.57196C153.035 16.5643 160.547 20.8163 168.303 19.9632C190.318 17.5416 212.482 17.5515 234.797 19.9932C242.516 20.8378 249.979 16.5901 253.358 9.61013C256.309 3.51296 262.994 0.336048 269.636 1.73116ZM97.8245 170.495C97.8245 193.338 114.314 212.208 134.555 212.208C155.145 212.208 171.315 193.337 171.285 170.498C171.635 147.614 155.14 128.75 134.555 128.75C113.962 128.75 97.8245 147.655 97.8245 170.495ZM231.714 170.495C231.714 193.338 248.203 212.208 268.444 212.208L304.674 170.495L305.174 170.502C305.174 170.501 305.174 170.5 305.174 170.498C305.524 147.614 289.029 128.75 268.444 128.75C247.851 128.75 231.714 147.655 231.714 170.495Z" fill="#5865F2" stroke="black"/>
</svg>
