<svg width="355" height="392" viewBox="0 0 355 392" fill="none" xmlns="http://www.w3.org/2000/svg">
<path d="M277.223 280.774C283.033 278.715 289.281 277.576 295.833 277.576C327.311 277.576 352.922 303.133 352.922 334.538C352.922 365.944 327.311 391.5 295.833 391.5C264.356 391.5 238.744 365.944 238.744 334.538C238.744 326.762 235.748 318.793 228.915 314.809L120.099 251.372C107.743 244.169 92.4276 246.87 79.2068 251.754C72.9664 254.059 66.2306 255.323 59.1667 255.323C26.7029 255.323 0.5 229.177 0.5 196.787C0.5 164.398 26.7029 138.251 59.1667 138.251C66.239 138.251 72.9823 139.519 79.229 141.829C92.4371 146.714 107.737 149.42 120.09 142.234L226.664 80.2409C234.044 75.9478 237.167 67.4332 237.167 59.0361C237.167 26.6467 263.37 0.5 295.833 0.5C328.297 0.5 354.5 26.6467 354.5 59.0361C354.5 91.4256 328.297 117.572 295.833 117.572C288.761 117.572 282.018 116.305 275.771 113.994C262.563 109.109 247.263 106.404 234.91 113.589L128.336 175.582C120.956 179.876 117.833 188.39 117.833 196.787C117.833 205.183 120.959 213.696 128.342 217.984L236.751 280.944C248.977 288.044 264.094 285.426 277.223 280.774Z" fill="#4ED97D" stroke="black"/>
</svg>
