<svg width="89" height="128" viewBox="0 0 89 128" fill="none" xmlns="http://www.w3.org/2000/svg">
    <path d="M57.4669 13.1263C57.4669 7.48886 57.4669 4.67013 55.9699 2.7393C55.6134 2.27955 55.2022 1.86563 54.7455 1.50684C52.8273 0 50.0269 0 44.4263 0C38.8257 0 36.0254 0 34.1072 1.50684C33.6504 1.86563 33.2392 2.27955 32.8828 2.7393C31.3858 4.67013 31.3858 7.48886 31.3858 13.1263V16.9085C31.3858 23.6206 31.3858 26.9767 29.3142 29.062C27.2426 31.1472 23.9084 31.1472 17.2401 31.1472H13.0406C7.43994 31.1472 4.63963 31.1472 2.72141 32.654C2.26466 33.0128 1.85344 33.4267 1.49699 33.8865C0 35.8173 0 38.636 0 44.2735C0 49.9109 0 52.7296 1.49699 54.6605C1.85344 55.1202 2.26466 55.5341 2.72141 55.8929C4.63963 57.3998 7.43994 57.3998 13.0406 57.3998H17.2401C23.9084 57.3998 27.2426 57.3998 29.3142 59.485C31.3858 61.5702 31.3858 64.9263 31.3858 71.6385V114.874C31.3858 120.511 31.3858 123.33 32.8828 125.261C33.2392 125.72 33.6504 126.134 34.1072 126.493C36.0254 128 38.8257 128 44.4263 128C50.0269 128 52.8273 128 54.7455 126.493C55.2022 126.134 55.6134 125.72 55.9699 125.261C57.4669 123.33 57.4669 120.511 57.4669 114.874V71.6385C57.4669 64.9263 57.4669 61.5702 59.5385 59.485C61.6101 57.3998 64.9442 57.3998 71.6126 57.3998H75.9594C81.5601 57.3998 84.3604 57.3998 86.2786 55.8929C86.7353 55.5341 87.1466 55.1202 87.503 54.6605C89 52.7296 89 49.9109 89 44.2735C89 38.636 89 35.8173 87.503 33.8865C87.1466 33.4267 86.7353 33.0128 86.2786 32.654C84.3604 31.1472 81.5601 31.1472 75.9594 31.1472H71.6126C64.9442 31.1472 61.6101 31.1472 59.5385 29.062C57.4669 26.9767 57.4669 23.6206 57.4669 16.9085V13.1263Z"/>
    <style>
        path { fill: #00507C; }
        @media (prefers-color-scheme: dark) {
            path { fill: #00A3FF; }
        }
    </style>
</svg>
