<svg width="1269" height="1089" viewBox="0 0 1269 1089" fill="none" xmlns="http://www.w3.org/2000/svg">
<path d="M423.703 51.4302L169.104 282.976C143.604 306.168 138.947 344.543 158.162 373.16C173.203 395.562 173.923 424.644 160.007 447.763L29.2687 664.973C-33.7337 769.645 12.1595 905.838 125.663 951.033L435.776 1074.52C524.491 1109.84 625.78 1076.81 676.623 995.987L732.379 907.349C763.642 857.649 815.35 824.387 873.539 816.547L1097.29 786.401C1200.94 772.435 1275.86 680.252 1268.33 575.928L1251.14 337.574C1243.16 226.95 1145.88 144.456 1035.44 154.66L895.383 167.6C825.125 174.091 756.798 142.326 716.475 84.4263C648.846 -12.6824 511.25 -28.1898 423.703 51.4302Z" fill="#00A3FF"/>
</svg>
