<svg viewBox="0 0 128 128" fill="none" xmlns="http://www.w3.org/2000/svg">
    <path d="M77.4669 13.1263C77.4669 7.48886 77.4669 4.67013 75.9699 2.7393C75.6134 2.27955 75.2022 1.86563 74.7455 1.50684C72.8273 0 70.0269 0 64.4263 0C58.8257 0 56.0254 0 54.1072 1.50684C53.6504 1.86563 53.2392 2.27955 52.8828 2.7393C51.3858 4.67013 51.3858 7.48886 51.3858 13.1263V16.9085C51.3858 23.6206 51.3858 26.9767 49.3142 29.062C47.2426 31.1472 43.9084 31.1472 37.2401 31.1472H33.0406C27.4399 31.1472 24.6396 31.1472 22.7214 32.654C22.2647 33.0128 21.8534 33.4267 21.497 33.8865C20 35.8173 20 38.636 20 44.2735C20 49.9109 20 52.7296 21.497 54.6605C21.8534 55.1202 22.2647 55.5341 22.7214 55.8929C24.6396 57.3998 27.4399 57.3998 33.0406 57.3998H37.2401C43.9084 57.3998 47.2426 57.3998 49.3142 59.485C51.3858 61.5702 51.3858 64.9263 51.3858 71.6385V114.874C51.3858 120.511 51.3858 123.33 52.8828 125.261C53.2392 125.72 53.6504 126.134 54.1072 126.493C56.0254 128 58.8257 128 64.4263 128C70.0269 128 72.8273 128 74.7455 126.493C75.2022 126.134 75.6134 125.72 75.9699 125.261C77.4669 123.33 77.4669 120.511 77.4669 114.874V71.6385C77.4669 64.9263 77.4669 61.5702 79.5385 59.485C81.6101 57.3998 84.9442 57.3998 91.6126 57.3998H95.9594C101.56 57.3998 104.36 57.3998 106.279 55.8929C106.735 55.5341 107.147 55.1202 107.503 54.6605C109 52.7296 109 49.9109 109 44.2735C109 38.636 109 35.8173 107.503 33.8865C107.147 33.4267 106.735 33.0128 106.279 32.654C104.36 31.1472 101.56 31.1472 95.9594 31.1472H91.6126C84.9442 31.1472 81.6101 31.1472 79.5385 29.062C77.4669 26.9767 77.4669 23.6206 77.4669 16.9085V13.1263Z"/>
    <style>
        path { fill: #00507C; }
        @media (prefers-color-scheme: dark) {
            path { fill: #00A3FF; }
        }
    </style>
</svg>
