<svg width="48" height="48" viewBox="0 0 48 48" fill="none" xmlns="http://www.w3.org/2000/svg">
<rect width="48" height="48" rx="15" fill="#CCCCCC"/>
<path d="M19.7787 4.85702C19.6364 5.26184 19.6364 5.76206 19.6364 6.7625V13.75L12.0727 13.75C10.9898 13.75 10.4483 13.75 10.0101 13.8815C9.12449 14.1474 8.43014 14.7888 8.14238 15.607C8 16.0118 8 16.5121 8 17.5125V18.05C8 19.0504 8 19.5507 8.14238 19.9555C8.43014 20.7737 9.12449 21.4151 10.0101 21.681C10.4483 21.8125 10.9898 21.8125 12.0727 21.8125H19.6364V42.2375C19.6364 43.2379 19.6364 43.7382 19.7787 44.143C20.0665 44.9612 20.7609 45.6026 21.6465 45.8685C22.0847 46 22.6262 46 23.7091 46H24.2909C25.3738 46 25.9153 46 26.3535 45.8685C27.2391 45.6026 27.9335 44.9612 28.2213 44.143C28.3636 43.7382 28.3636 43.2379 28.3636 42.2375V21.8125H35.9273C37.0102 21.8125 37.5517 21.8125 37.9899 21.681C38.8755 21.4151 39.5699 20.7737 39.8576 19.9555C40 19.5507 40 19.0504 40 18.05V17.5125C40 16.5121 40 16.0118 39.8576 15.607C39.5699 14.7888 38.8755 14.1474 37.9899 13.8815C37.5517 13.75 37.0102 13.75 35.9273 13.75L28.3636 13.75V6.7625C28.3636 5.76206 28.3636 5.26184 28.2213 4.85702C27.9335 4.03884 27.2391 3.39738 26.3535 3.13154C25.9153 3 25.3738 3 24.2909 3H23.7091C22.6262 3 22.0847 3 21.6465 3.13154C20.7609 3.39738 20.0665 4.03884 19.7787 4.85702Z" fill="#0072B0"/>
</svg>
