<svg width="444" height="689" viewBox="0 0 444 689" fill="none" xmlns="http://www.w3.org/2000/svg">
<path d="M240.247 0.5C260.125 0.5 276.24 16.6191 276.24 36.5033V127.762C276.24 148.198 292.802 164.765 313.233 164.765H407.507C427.385 164.765 443.5 180.884 443.5 200.768V237.272C443.5 257.156 427.385 273.275 407.507 273.275H313.233C292.802 273.275 276.24 289.842 276.24 310.278V652.497C276.24 672.381 260.125 688.5 240.247 688.5H203.753C183.875 688.5 167.76 672.381 167.76 652.497V310.278C167.76 289.842 151.198 273.275 130.767 273.275H36.4931C16.6148 273.275 0.499999 257.156 0.5 237.271L0.500002 200.768C0.500002 180.884 16.6148 164.765 36.4932 164.765L130.767 164.765C151.198 164.765 167.76 148.198 167.76 127.762V36.5033C167.76 16.6191 183.875 0.5 203.753 0.5H240.247Z" fill="#FCD05F" stroke="black"/>
</svg>
