<svg width="491" height="469" viewBox="0 0 491 469" fill="none" xmlns="http://www.w3.org/2000/svg">
<path d="M262.996 13.2832L307.903 151.49C310.513 159.524 318 164.964 326.448 164.964H471.767C489.689 164.964 497.14 187.897 482.641 198.431L365.076 283.847C358.241 288.813 355.381 297.615 357.992 305.649L402.898 443.856C408.436 460.9 388.928 475.073 374.429 464.539L256.864 379.123C250.029 374.157 240.775 374.157 233.94 379.123L116.374 464.54C101.876 475.073 82.3678 460.9 87.9058 443.856L132.812 305.649C135.422 297.615 132.563 288.813 125.728 283.847L8.16238 198.431C-6.33632 187.897 1.11505 164.964 19.0364 164.964H164.356C172.804 164.964 180.291 159.524 182.901 151.49L227.807 13.2832C233.345 -3.76107 257.458 -3.76105 262.996 13.2832Z" fill="#4ED97D" stroke="black"/>
</svg>
